<svg class="animated" id="freepik_stories-demo" xmlns="http://www.w3.org/2000/svg" viewBox="0 0 750 500" version="1.1" xmlns:xlink="http://www.w3.org/1999/xlink" xmlns:svgjs="http://svgjs.com/svgjs"><style>svg#freepik_stories-demo:not(.animated) .animable {opacity: 0;}svg#freepik_stories-demo.animated #freepik--Button--inject-180 {animation: 1.5s Infinite  linear floating;animation-delay: 0s;}svg#freepik_stories-demo.animated #freepik--Icon--inject-180 {animation: 1.5s Infinite  linear floating;animation-delay: 0s;}            @keyframes floating {                0% {                    opacity: 1;                    transform: translateY(0px);                }                50% {                    transform: translateY(-10px);                }                100% {                    opacity: 1;                    transform: translateY(0px);                }            }        </style><g id="freepik--background-simple--inject-180" class="animable" style="transform-origin: 369.252px 238.529px;"><path d="M562.51,15.06C484.78,17.1,450.14,66.28,349.25,87c-102.73,8-150-29.63-225.17-10.1-80.9,21-123.27,139.5-83.57,245s164.4,148.34,221.92,138.85c46-7.58,82.88-32.9,134.47-45.71,53.17-2,95.81,12.15,142.09,6.72,57.92-6.8,165.42-82.33,173.49-194.61S646.15,12.88,562.51,15.06Z" style="fill: #00FF88; transform-origin: 369.252px 238.529px;" id="elswlachhsx49" class="animable"></path><g id="elx31lkkem1i"><path d="M562.51,15.06C484.78,17.1,450.14,66.28,349.25,87c-102.73,8-150-29.63-225.17-10.1-80.9,21-123.27,139.5-83.57,245s164.4,148.34,221.92,138.85c46-7.58,82.88-32.9,134.47-45.71,53.17-2,95.81,12.15,142.09,6.72,57.92-6.8,165.42-82.33,173.49-194.61S646.15,12.88,562.51,15.06Z" style="fill: rgb(255, 255, 255); opacity: 0.7; transform-origin: 369.252px 238.529px;" class="animable" id="ellb9s3y5ju4a"></path></g></g><g id="freepik--Floor--inject-180" class="animable" style="transform-origin: 374.215px 464.43px;"><line x1="83.31" y1="464.43" x2="696.98" y2="464.43" style="fill: none; stroke: rgb(38, 50, 56); stroke-miterlimit: 10; transform-origin: 390.145px 464.43px;" id="elwphjq7kdjob" class="animable"></line><line x1="51.45" y1="464.43" x2="67.97" y2="464.43" style="fill: none; stroke: rgb(38, 50, 56); stroke-miterlimit: 10; transform-origin: 59.71px 464.43px;" id="elfykod05t3vo" class="animable"></line></g><g id="freepik--Plant--inject-180" class="animable" style="transform-origin: 607.037px 285.133px;"><path d="M573,321.57s18,28.71,25.49,56.49c5.34,19.75,5.59,58.94,5.59,58.94s.36-116.28,27.12-161.31" style="fill: none; stroke: rgb(38, 50, 56); stroke-linecap: round; stroke-linejoin: round; transform-origin: 602.1px 356.345px;" id="elgire5w8jj5k" class="animable"></path><path d="M645.67,175s-25.91,41.62-33.13,85-8.92,150.79-8.92,150.79c-.43-22.51-3.83-104.92-11-140.6a267.1,267.1,0,0,0-20.38-61.59" style="fill: none; stroke: rgb(38, 50, 56); stroke-linecap: round; stroke-linejoin: round; transform-origin: 608.955px 292.895px;" id="eli81ogsfc70m" class="animable"></path><path d="M577.81,221.22s21.68,1,31.8-15.27,3.47-31.84-6.05-33-13.65,10.63-17.17,5,10.12-16.28-5.18-26.06-22.42,4.25-27.28-.76-1.35-18.11-11.45-23.86-14.82,1.41-20.41,1.65-23.2-9.25-30.23-1.8,9.79,25.47,1.89,26S482.63,169.07,489,179s27.07,13.91,23,19.11-23.75,4.88-15.71,16.51,35.31,12.4,39.23,13.78-12.56,4.41-9.78,15.3,25.46,12.24,40,5.24S577.81,221.22,577.81,221.22Z" style="fill: #00FF88; transform-origin: 550.141px 188.759px;" id="elfp3py5u8rte" class="animable"></path><path d="M515.24,147.8s46.06,30.11,62.57,73.42" style="fill: none; stroke: rgb(38, 50, 56); stroke-linecap: round; stroke-linejoin: round; transform-origin: 546.525px 184.51px;" id="elf8s29nvoj8" class="animable"></path><polyline points="512.98 168.89 543.86 171.9 536.33 146.3" style="fill: none; stroke: rgb(38, 50, 56); stroke-linecap: round; stroke-linejoin: round; transform-origin: 528.42px 159.1px;" id="elhhd5v08oql8" class="animable"></polyline><polyline points="537.83 204.29 568.71 204.29 570.97 176.42" style="fill: none; stroke: rgb(38, 50, 56); stroke-linecap: round; stroke-linejoin: round; transform-origin: 554.4px 190.355px;" id="eln65k8ybg43o" class="animable"></polyline><path d="M641.32,184.33s-17.6.82-25.82-12.4-2.81-25.84,4.91-26.77,11.08,8.64,14,4.05-8.22-13.21,4.2-21.15,18.2,3.45,22.14-.62,1.1-14.7,9.3-19.37,12,1.15,16.57,1.34S705.4,101.9,711.1,108s-7.94,20.68-1.53,21.11,9,12.94,3.81,21-22,11.29-18.71,15.51,19.28,4,12.76,13.41-28.66,10.07-31.85,11.18,10.2,3.58,7.94,12.42-20.66,9.94-32.5,4.26S641.32,184.33,641.32,184.33Z" style="fill: #00FF88; transform-origin: 663.769px 158.018px;" id="elbbjw1cfrtr9" class="animable"></path><path d="M692.11,124.73s-37.39,24.44-50.79,59.6" style="fill: none; stroke: rgb(38, 50, 56); stroke-linecap: round; stroke-linejoin: round; transform-origin: 666.715px 154.53px;" id="el5jqv514ir7k" class="animable"></path><polyline points="693.95 141.85 668.88 144.3 674.99 123.51" style="fill: none; stroke: rgb(38, 50, 56); stroke-linecap: round; stroke-linejoin: round; transform-origin: 681.415px 133.905px;" id="el0dgb5mp381ui" class="animable"></polyline><polyline points="673.77 170.59 648.71 170.59 646.87 147.97" style="fill: none; stroke: rgb(38, 50, 56); stroke-linecap: round; stroke-linejoin: round; transform-origin: 660.32px 159.28px;" id="el8195mtl91jl" class="animable"></polyline><path d="M583.74,342s14.28.66,20.94-10.06,2.29-21-4-21.71-9,7-11.31,3.28,6.67-10.72-3.41-17.16-14.77,2.8-18-.5-.9-11.93-7.55-15.71-9.76.92-13.44,1.08-15.28-6.09-19.9-1.18,6.44,16.77,1.24,17.12-7.31,10.5-3.09,17.06,17.83,9.16,15.18,12.59-15.65,3.21-10.35,10.87,23.25,8.17,25.83,9.08-8.27,2.9-6.44,10.07,16.77,8.06,26.37,3.45S583.74,342,583.74,342Z" style="fill: #00FF88; transform-origin: 565.491px 320.639px;" id="ele9aerhi0lp" class="animable"></path><path d="M542.53,293.61s30.33,19.83,41.21,48.35" style="fill: none; stroke: rgb(38, 50, 56); stroke-linecap: round; stroke-linejoin: round; transform-origin: 563.135px 317.785px;" id="elx1dohr9n0m9" class="animable"></path><polyline points="541.04 307.5 561.38 309.48 556.42 292.62" style="fill: none; stroke: rgb(38, 50, 56); stroke-linecap: round; stroke-linejoin: round; transform-origin: 551.21px 301.05px;" id="elxpk2d6ukbwr" class="animable"></polyline><polyline points="557.41 330.81 577.75 330.81 579.23 312.46" style="fill: none; stroke: rgb(38, 50, 56); stroke-linecap: round; stroke-linejoin: round; transform-origin: 568.32px 321.635px;" id="ele9a3ya58myw" class="animable"></polyline><path d="M626.09,286s-21.52-2.89-28.57-20.72,2.29-31.94,11.86-31.36,11.52,12.9,16,8-7-17.83,9.76-24.71,21.3,8.19,27,4.13,4.57-17.58,15.54-21.43,14.33,4,19.79,5.28,24.48-5,30,3.63-14.18,23.32-6.51,25.25,8.08,17.67,0,26.32-29.12,8.85-26.08,14.68,22.49,9.06,12.5,19.07-37,5.88-41.06,6.53,11.57,6.58,6.88,16.8-27.23,7.49-40.32-2S626.09,286,626.09,286Z" style="fill: #00FF88; transform-origin: 661.756px 261.412px;" id="elbo94gsozipp" class="animable"></path><path d="M700.78,225s-50.7,21.38-74.69,61" style="fill: none; stroke: rgb(38, 50, 56); stroke-linecap: round; stroke-linejoin: round; transform-origin: 663.435px 255.5px;" id="el7e0wuxe3xib" class="animable"></path><polyline points="699.23 246.15 668.31 243.59 680.3 219.75" style="fill: none; stroke: rgb(38, 50, 56); stroke-linecap: round; stroke-linejoin: round; transform-origin: 683.77px 232.95px;" id="el1ef46ppnu8j" class="animable"></polyline><polyline points="668.45 276.53 638.07 271 640.83 243.19" style="fill: none; stroke: rgb(38, 50, 56); stroke-linecap: round; stroke-linejoin: round; transform-origin: 653.26px 259.86px;" id="elk1cp5ti2svs" class="animable"></polyline><path d="M568.86,382.44c-1.53,4.14-2.42,39.37-2.42,44,0,31,17.09,38.18,38.18,38.18s38.17-5.53,38.17-38.18c0-4.67-.88-39.9-2.42-44Z" style="fill: rgb(38, 50, 56); stroke: rgb(38, 50, 56); stroke-linecap: round; stroke-linejoin: round; transform-origin: 604.615px 423.53px;" id="eletcym3vbb7j" class="animable"></path></g><g id="freepik--Graphics--inject-180" class="animable" style="transform-origin: 357.063px 224.14px;"><line x1="78.36" y1="386.32" x2="78.36" y2="402.59" style="fill: none; stroke: rgb(38, 50, 56); stroke-miterlimit: 10; transform-origin: 78.36px 394.455px;" id="el4rbfrwxjjls" class="animable"></line><line x1="86.5" y1="394.45" x2="70.23" y2="394.45" style="fill: none; stroke: rgb(38, 50, 56); stroke-miterlimit: 10; transform-origin: 78.365px 394.45px;" id="eluf6arex8tch" class="animable"></line><line x1="388.91" y1="357.93" x2="388.91" y2="367.96" style="fill: none; stroke: rgb(38, 50, 56); stroke-miterlimit: 10; transform-origin: 388.91px 362.945px;" id="elbdlk1ypv1wd" class="animable"></line><line x1="393.92" y1="362.94" x2="383.89" y2="362.94" style="fill: none; stroke: rgb(38, 50, 56); stroke-miterlimit: 10; transform-origin: 388.905px 362.94px;" id="elgmo6w7zotcr" class="animable"></line><line x1="441.92" y1="18.35" x2="441.92" y2="28.38" style="fill: none; stroke: rgb(38, 50, 56); stroke-miterlimit: 10; transform-origin: 441.92px 23.365px;" id="el64b2u950363" class="animable"></line><line x1="446.94" y1="23.36" x2="436.91" y2="23.36" style="fill: none; stroke: rgb(38, 50, 56); stroke-miterlimit: 10; transform-origin: 441.925px 23.36px;" id="el8i99qp71hlx" class="animable"></line><line x1="647.23" y1="354.39" x2="647.23" y2="364.43" style="fill: none; stroke: rgb(38, 50, 56); stroke-miterlimit: 10; transform-origin: 647.23px 359.41px;" id="el7cerbn91kp4" class="animable"></line><line x1="652.25" y1="359.41" x2="642.21" y2="359.41" style="fill: none; stroke: rgb(38, 50, 56); stroke-miterlimit: 10; transform-origin: 647.23px 359.41px;" id="elxvczyvqxpop" class="animable"></line><line x1="435.55" y1="405.58" x2="435.55" y2="429.93" style="fill: none; stroke: rgb(38, 50, 56); stroke-miterlimit: 10; transform-origin: 435.55px 417.755px;" id="elenalhv0d2l5" class="animable"></line><line x1="447.73" y1="417.76" x2="423.38" y2="417.76" style="fill: none; stroke: rgb(38, 50, 56); stroke-miterlimit: 10; transform-origin: 435.555px 417.76px;" id="elojl3el7tsal" class="animable"></line><line x1="63.39" y1="55.24" x2="63.39" y2="79.59" style="fill: none; stroke: rgb(38, 50, 56); stroke-miterlimit: 10; transform-origin: 63.39px 67.415px;" id="ela51kpfeexg" class="animable"></line><line x1="75.56" y1="67.41" x2="51.21" y2="67.41" style="fill: none; stroke: rgb(38, 50, 56); stroke-miterlimit: 10; transform-origin: 63.385px 67.41px;" id="elnrxj793hxio" class="animable"></line><circle cx="149.55" cy="365.37" r="4.39" style="fill: none; stroke: rgb(38, 50, 56); stroke-miterlimit: 10; transform-origin: 149.55px 365.37px;" id="elkgpxz1l177s" class="animable"></circle><path d="M61,247.06a4.39,4.39,0,1,1-4.39-4.39A4.39,4.39,0,0,1,61,247.06Z" style="fill: none; stroke: rgb(38, 50, 56); stroke-miterlimit: 10; transform-origin: 56.61px 247.06px;" id="el4lqhh9dxm3u" class="animable"></path><circle cx="149.89" cy="414.38" r="2.7" style="fill: none; stroke: rgb(38, 50, 56); stroke-miterlimit: 10; transform-origin: 149.89px 414.38px;" id="elej7y69rmndm" class="animable"></circle><circle cx="202.62" cy="367.06" r="2.7" style="fill: none; stroke: rgb(38, 50, 56); stroke-miterlimit: 10; transform-origin: 202.62px 367.06px;" id="elip0e40jwv5q" class="animable"></circle><circle cx="310.78" cy="29.73" r="2.7" style="fill: none; stroke: rgb(38, 50, 56); stroke-miterlimit: 10; transform-origin: 310.78px 29.73px;" id="el6b7nvvjz7pd" class="animable"></circle><circle cx="455.1" cy="391.05" r="3.04" style="fill: none; stroke: rgb(38, 50, 56); stroke-miterlimit: 10; transform-origin: 455.1px 391.05px;" id="elr1pusjqzx5n" class="animable"></circle><circle cx="684.55" cy="338.4" r="3.04" style="fill: none; stroke: rgb(38, 50, 56); stroke-miterlimit: 10; transform-origin: 684.55px 338.4px;" id="eln5hy7djwwvk" class="animable"></circle><circle cx="603.15" cy="80.43" r="3.04" style="fill: none; stroke: rgb(38, 50, 56); stroke-miterlimit: 10; transform-origin: 603.15px 80.43px;" id="eln1vasrvr3ss" class="animable"></circle><g id="el39otn5c550k"><circle cx="40.31" cy="157.43" r="9.74" style="fill: none; stroke: rgb(38, 50, 56); stroke-miterlimit: 10; transform-origin: 40.31px 157.43px; transform: rotate(-45deg);" class="animable" id="elk75s73t2jl"></circle></g><g id="elmc6qxpo5qu9"><circle cx="622.35" cy="114.44" r="9.74" style="fill: none; stroke: rgb(38, 50, 56); stroke-miterlimit: 10; transform-origin: 622.35px 114.44px; transform: rotate(-76.77deg);" class="animable" id="elxm87m8qlzz"></circle></g><g id="elc99qsicuh3"><circle cx="530.83" cy="389.05" r="9.74" style="fill: none; stroke: rgb(38, 50, 56); stroke-miterlimit: 10; transform-origin: 530.83px 389.05px; transform: rotate(-80.75deg);" class="animable" id="elpjuixmxe5wa"></circle></g><g id="ellhx8j1lp45"><circle cx="161.18" cy="30.91" r="9.74" style="fill: none; stroke: rgb(38, 50, 56); stroke-miterlimit: 10; transform-origin: 161.18px 30.91px; transform: rotate(-76.72deg);" class="animable" id="elfrtaf7lfxei"></circle></g></g><g id="freepik--Device--inject-180" class="animable" style="transform-origin: 325.11px 255.025px;"><rect x="300.61" y="305.67" width="39.08" height="157.65" style="fill: rgb(38, 50, 56); stroke: rgb(38, 50, 56); stroke-linecap: round; stroke-linejoin: round; transform-origin: 320.15px 384.495px;" id="elciob2z5ptos" class="animable"></rect><rect x="83.5" y="45.62" width="493.16" height="299.13" style="fill: rgb(38, 50, 56); stroke: rgb(38, 50, 56); stroke-linecap: round; stroke-linejoin: round; transform-origin: 330.08px 195.185px;" id="elas5ul4hb07" class="animable"></rect><rect x="73.56" y="45.62" width="493.16" height="299.13" style="fill: #00FF88; stroke: rgb(38, 50, 56); stroke-linecap: round; stroke-linejoin: round; transform-origin: 320.14px 195.185px;" id="elh5uxujfsx8" class="animable"></rect><rect x="91.33" y="56.4" width="457.62" height="277.57" style="fill: rgb(255, 255, 255); stroke: rgb(38, 50, 56); stroke-linecap: round; stroke-linejoin: round; transform-origin: 320.14px 195.185px;" id="eliln1rsezalm" class="animable"></rect><rect x="91.33" y="317.25" width="457.62" height="16.72" style="fill: rgb(255, 255, 255); stroke: rgb(38, 50, 56); stroke-linecap: round; stroke-linejoin: round; transform-origin: 320.14px 325.61px;" id="el24ubieaaw1k" class="animable"></rect><polygon points="322.28 445.64 177.4 455 177.4 464.43 462.89 464.43 462.89 455 322.28 445.64" style="fill: rgb(38, 50, 56); stroke: rgb(38, 50, 56); stroke-linecap: round; stroke-linejoin: round; transform-origin: 320.145px 455.035px;" id="elwbd9exvvg" class="animable"></polygon><rect x="91.33" y="56.4" width="457.62" height="277.57" style="fill: rgb(255, 255, 255); stroke: rgb(38, 50, 56); stroke-linecap: round; stroke-linejoin: round; transform-origin: 320.14px 195.185px;" id="el8zi31ej0yy5" class="animable"></rect><rect x="91.33" y="282.35" width="457.62" height="51.62" style="fill: rgb(194, 194, 194); stroke: rgb(38, 50, 56); stroke-linecap: round; stroke-linejoin: round; transform-origin: 320.14px 308.16px;" id="el0glbmfsrkfzn" class="animable"></rect><rect x="133.39" y="294.92" width="369.21" height="15.15" style="fill: rgb(232, 232, 232); stroke: rgb(38, 50, 56); stroke-linecap: round; stroke-linejoin: round; transform-origin: 317.995px 302.495px;" id="elmc8qpm54tqe" class="animable"></rect><rect x="133.39" y="299.68" width="369.21" height="5.63" style="fill: rgb(255, 255, 255); stroke: rgb(38, 50, 56); stroke-linecap: round; stroke-linejoin: round; transform-origin: 317.995px 302.495px;" id="eliq1q3e7vwzn" class="animable"></rect><polygon points="128.74 302.34 110.7 291.92 110.7 312.75 128.74 302.34" style="fill: rgb(232, 232, 232); stroke: rgb(38, 50, 56); stroke-linecap: round; stroke-linejoin: round; transform-origin: 119.72px 302.335px;" id="eluv9qbq63ldr" class="animable"></polygon><rect x="539.58" y="56.4" width="9.38" height="277.57" style="fill: rgb(232, 232, 232); stroke: rgb(38, 50, 56); stroke-linecap: round; stroke-linejoin: round; transform-origin: 544.27px 195.185px;" id="ellth6wq8wyu" class="animable"></rect><rect x="539.58" y="109.96" width="9.38" height="146.88" style="fill: rgb(194, 194, 194); stroke: rgb(38, 50, 56); stroke-linecap: round; stroke-linejoin: round; transform-origin: 544.27px 183.4px;" id="elk4bkbmuxwr" class="animable"></rect><rect x="91.33" y="56.4" width="457.62" height="10.69" style="stroke: rgb(38, 50, 56); stroke-linecap: round; stroke-linejoin: round; transform-origin: 320.14px 61.745px;" id="ellfqjdo4qgx" class="animable"></rect><rect x="91.33" y="325.92" width="457.62" height="8.05" style="stroke: rgb(38, 50, 56); stroke-linecap: round; stroke-linejoin: round; transform-origin: 320.14px 329.945px;" id="elzzsvhq5ljif" class="animable"></rect></g><g id="freepik--Button--inject-180" class="animable animator-active" style="transform-origin: 317.945px 199.13px;"><rect x="193.85" y="164.05" width="248.19" height="70.16" rx="9.92" style="fill: #00FF88; transform-origin: 317.945px 199.13px;" id="eldda2y0mae3" class="animable"></rect><path d="M216.74,217.23a10.16,10.16,0,0,1-5.61-1.44,9.16,9.16,0,0,1-3.39-4,16.62,16.62,0,0,1-1.35-5.92l4.81-1.3a22.45,22.45,0,0,0,.65,4,7.2,7.2,0,0,0,1.67,3.16,4.19,4.19,0,0,0,3.22,1.22,4.12,4.12,0,0,0,3.2-1.18,4.78,4.78,0,0,0,1.09-3.39,7,7,0,0,0-1.21-4.26,21.91,21.91,0,0,0-3-3.25l-6.55-5.78a11,11,0,0,1-2.84-3.68,11.85,11.85,0,0,1-.91-4.94,8.76,8.76,0,0,1,2.45-6.64,9.27,9.27,0,0,1,6.69-2.36,12.59,12.59,0,0,1,4.07.6,7.21,7.21,0,0,1,2.94,1.85,9.18,9.18,0,0,1,1.88,3.16,18,18,0,0,1,.94,4.45l-4.63,1.25a18.47,18.47,0,0,0-.57-3.53,5.24,5.24,0,0,0-1.52-2.6,4.45,4.45,0,0,0-3.11-1,4.38,4.38,0,0,0-3.15,1.08,4.24,4.24,0,0,0-1.13,3.2,6.35,6.35,0,0,0,.6,2.94,8.54,8.54,0,0,0,2,2.36l6.6,5.78a20.68,20.68,0,0,1,3.9,4.6,11.64,11.64,0,0,1,1.68,6.33,9.87,9.87,0,0,1-1.2,5,8.07,8.07,0,0,1-3.3,3.2A10.19,10.19,0,0,1,216.74,217.23Z" style="fill: rgb(38, 50, 56); transform-origin: 216.277px 197.347px;" id="el2cbczfhn6jr" class="animable"></path><path d="M234.6,216.8v-35H228v-4h18.44v4H240v35Z" style="fill: rgb(38, 50, 56); transform-origin: 237.22px 197.3px;" id="elkrbq5qe441" class="animable"></path><path d="M248,216.8l8.28-39h5.25l8.33,39H264.7L262.92,207h-8l-1.88,9.83Zm7.7-13.73h6.5l-3.27-17.57Z" style="fill: rgb(38, 50, 56); transform-origin: 258.93px 197.315px;" id="eltm9a8r8voq" class="animable"></path><path d="M273.8,216.8v-39h7.85a17.29,17.29,0,0,1,6.45,1,7.23,7.23,0,0,1,3.78,3.32,12.69,12.69,0,0,1,1.22,6,16.33,16.33,0,0,1-.48,4.11,7.86,7.86,0,0,1-1.54,3.13,5.92,5.92,0,0,1-2.79,1.86l5.54,19.55h-5.25l-5.11-18.3h-4.23v18.3Zm5.44-22.2h2.07a10.11,10.11,0,0,0,3.75-.58,3.83,3.83,0,0,0,2.12-2,9.13,9.13,0,0,0,.68-3.9q0-3.42-1.26-4.94t-5-1.51h-2.41Z" style="fill: rgb(38, 50, 56); transform-origin: 283.815px 197.294px;" id="elzsyx9uzz9um" class="animable"></path><path d="M303.07,216.8v-35h-6.6v-4h18.45v4h-6.41v35Z" style="fill: rgb(38, 50, 56); transform-origin: 305.695px 197.3px;" id="el7oehugxta9" class="animable"></path><path d="M329.7,216.8v-39h8.47a14.92,14.92,0,0,1,6.86,1.32,7.57,7.57,0,0,1,3.61,4,17.38,17.38,0,0,1,1.09,6.6V204a19.49,19.49,0,0,1-1.09,7,8.33,8.33,0,0,1-3.51,4.31,12.56,12.56,0,0,1-6.53,1.47Zm5.44-3.9h3.08c2,0,3.4-.39,4.24-1.16a5.23,5.23,0,0,0,1.51-3.37,45.09,45.09,0,0,0,.27-5.34V190.36a25,25,0,0,0-.39-4.91,4.08,4.08,0,0,0-1.68-2.74,7.51,7.51,0,0,0-4.09-.87h-2.94Z" style="fill: rgb(38, 50, 56); transform-origin: 339.719px 197.292px;" id="elvlkdfzp5vtj" class="animable"></path><path d="M355.07,216.8v-39h15.12v4h-9.68v12.9h7.85v3.86h-7.85v14.3h9.78v3.9Z" style="fill: rgb(38, 50, 56); transform-origin: 362.68px 197.3px;" id="elezqfaidkfc" class="animable"></path><path d="M374.57,216.8l.72-39h5.35l6.88,31.63,6.94-31.63h5.29l.73,39h-4.39l-.43-28.31-6.6,28.31H386l-6.55-28.31L379,216.8Z" style="fill: rgb(38, 50, 56); transform-origin: 387.525px 197.3px;" id="elqfpwe6yytx" class="animable"></path><path d="M416.41,217.23a11.34,11.34,0,0,1-6.3-1.54,8.4,8.4,0,0,1-3.37-4.41,20,20,0,0,1-1-6.71V189.78a19,19,0,0,1,1-6.62,8.24,8.24,0,0,1,3.37-4.23,11.7,11.7,0,0,1,6.28-1.47,11.48,11.48,0,0,1,6.26,1.49,8.46,8.46,0,0,1,3.35,4.24,18.73,18.73,0,0,1,1,6.59v14.83a19.4,19.4,0,0,1-1,6.65,8.85,8.85,0,0,1-3.35,4.41A11,11,0,0,1,416.41,217.23Zm0-4.29a5.11,5.11,0,0,0,3.28-.89,4.37,4.37,0,0,0,1.49-2.5,16.15,16.15,0,0,0,.39-3.78V188.68a15.53,15.53,0,0,0-.39-3.73,4.14,4.14,0,0,0-1.49-2.41,5.38,5.38,0,0,0-3.28-.84,5.45,5.45,0,0,0-3.29.84A4,4,0,0,0,411.6,185a15.53,15.53,0,0,0-.39,3.73v17.09a16.15,16.15,0,0,0,.39,3.78,4.26,4.26,0,0,0,1.52,2.5A5.18,5.18,0,0,0,416.41,212.94Z" style="fill: rgb(38, 50, 56); transform-origin: 416.37px 197.345px;" id="eluo4b4r6jio8" class="animable"></path></g><g id="freepik--Icon--inject-180" class="animable" style="transform-origin: 309.061px 116.135px;"><circle cx="311.15" cy="115.63" r="37.43" style="fill: #00FF88; transform-origin: 311.15px 115.63px;" id="ellzb1h1tzv6" class="animable"></circle><path d="M267.81,113l1.38,12.85a4.35,4.35,0,0,0,5.2,3.8c9.14-1.87,29.56-5.72,42.05-5.52,16.47.27,31.36,8.59,31.36,8.59l-.15-7.5A131.17,131.17,0,0,0,342.38,91l-2.16-7.36s-11.54,12.79-28.36,18.13c-12.66,4-31.5,5.78-40,6.4A4.35,4.35,0,0,0,267.81,113Z" style="fill: rgb(255, 255, 255); stroke: rgb(38, 50, 56); stroke-linecap: round; stroke-linejoin: round; transform-origin: 307.791px 108.18px;" id="el1jckrkaxx4w" class="animable"></path><path d="M340.49,87.44l-.1-.38s-11.74,12.6-28.65,17.67c-.91.28-1.85.54-2.82.79" style="fill: none; stroke: rgb(38, 50, 56); stroke-miterlimit: 10; transform-origin: 324.705px 96.29px;" id="elf78ap4vb1yb" class="animable"></path><path d="M305.09,106.42c-2.86.62-5.87,1.15-8.88,1.61" style="fill: none; stroke: rgb(38, 50, 56); stroke-miterlimit: 10; transform-origin: 300.65px 107.225px;" id="elj51pzjpzj7" class="animable"></path><path d="M348.07,135.18h-.22a2.5,2.5,0,0,1-2.55-2.45l-.16-7.5A128.37,128.37,0,0,0,340,91.69l-2.16-7.36a2.51,2.51,0,1,1,4.81-1.41l2.16,7.36a133.27,133.27,0,0,1,5.38,34.86l.15,7.5A2.51,2.51,0,0,1,348.07,135.18Z" style="fill: rgb(38, 50, 56); stroke: rgb(38, 50, 56); stroke-linecap: round; stroke-linejoin: round; transform-origin: 344.018px 108.082px;" id="elqcyzevy8od" class="animable"></path><path d="M297.54,105.1c-9.9,1.74-20.07,2.65-25.72,3.06a4.35,4.35,0,0,0-4,4.81l1.38,12.85a4.35,4.35,0,0,0,5.2,3.8c5.65-1.15,15.6-3.07,25.32-4.31Z" style="fill: rgb(38, 50, 56); stroke: rgb(38, 50, 56); stroke-linecap: round; stroke-linejoin: round; transform-origin: 283.757px 117.404px;" id="elwnbjyyu1a1p" class="animable"></path><path d="M280.78,126.17s4,8.13,4.62,8.88a2.51,2.51,0,0,0,1.13.62,5,5,0,0,1,2.69,2c2.86,4.33,10.16,15.39,10.53,15.78a1.91,1.91,0,0,0,2.22.44c.63-.47,5.3-5,4.95-7s-1-1.39-2-2.23c-.84-.68-4.08-6.47-5.31-8.7a1.65,1.65,0,0,1,.07-1.7l1.09-1.66s-4.76-3.84-4.84-4.51,1.92-1.16,2-1.84-1.69-3.08-1.69-3.08Z" style="fill: rgb(255, 255, 255); stroke: rgb(38, 50, 56); stroke-linecap: round; stroke-linejoin: round; transform-origin: 293.859px 138.62px;" id="el7i62lcfh7hp" class="animable"></path><path d="M297.8,130.08l3.49,1.28a.23.23,0,0,1,.11.34l-.63.88Z" style="fill: #00FF88; stroke: rgb(38, 50, 56); stroke-miterlimit: 10; transform-origin: 299.619px 131.33px;" id="elr618n52uakc" class="animable"></path><line x1="289.12" y1="133.35" x2="288.11" y2="134.13" style="fill: none; stroke: rgb(38, 50, 56); stroke-miterlimit: 10; transform-origin: 288.615px 133.74px;" id="elf9cyj8sl0l" class="animable"></line><line x1="295.93" y1="128.07" x2="289.99" y2="132.67" style="fill: none; stroke: rgb(38, 50, 56); stroke-miterlimit: 10; transform-origin: 292.96px 130.37px;" id="eliue5gkxp3nn" class="animable"></line><g id="elp23u3qvlisk"><rect x="284.78" y="114.44" width="3.89" height="2.48" style="fill: #00FF88; transform-origin: 286.725px 115.68px; transform: rotate(-6.13deg);" class="animable" id="el13shps0yo4z"></rect></g></g><g id="freepik--Character--inject-180" class="animable" style="transform-origin: 257.66px 336.448px;"><path d="M273.75,421s-2.33,39.61-2.33,40.23-2.93,10.47-2.51,11.93,3.76,1.88,6.06,2.09,7.12.84,9,.84,8.58-.42,9.83-.84,2.93-1.67,1.47-2.72-5-1.46-9.21-6.27-5.23-6.91-5.23-6.91l8.82-37.93Z" style="fill: rgb(255, 255, 255); stroke: rgb(38, 50, 56); stroke-linecap: round; stroke-linejoin: round; transform-origin: 282.353px 448.545px;" id="elnjclido57r" class="animable"></path><path d="M271.42,461.18a23.8,23.8,0,0,0,3.26,1.11c1.65.41,5.08,1.65,5.08,1.65l1.07-4.64,5.24,4.91a15.33,15.33,0,0,0-.69,3.16c-.27,2.05-.55,4.25-.55,4.25l3.16,1,1.23-5.63,4.25,3-1,3.84a3.09,3.09,0,0,0,2.88.41c1.79-.54,1.79.14,1.38,1.24s-3.85,1.92-6.86,2.19A98.16,98.16,0,0,1,274,476.56c-2.46-.55-4.25-.69-5.48-1.51s-.28-3.57-.14-4.12,7.68,2.2,8.37,2.2,1.92-3.43,1.92-3.43l-9.6-2.61S269.25,461.45,271.42,461.18Z" style="fill: rgb(38, 50, 56); stroke: rgb(38, 50, 56); stroke-linecap: round; stroke-linejoin: round; transform-origin: 282.425px 468.488px;" id="elqz9m284kghc" class="animable"></path><path d="M195.31,459.66a12.15,12.15,0,0,0-4.31,2.46c-2,1.81-1.88,7.73-1.88,7.73Z" style="fill: rgb(38, 50, 56); stroke: rgb(38, 50, 56); stroke-linecap: round; stroke-linejoin: round; transform-origin: 192.214px 464.755px;" id="el3xdwvd4em8l" class="animable"></path><path d="M201.84,469.71a62.88,62.88,0,0,0-8-2,39.24,39.24,0,0,0-4.88,0s-1.62.55-1.62,1.81-.28,3.08,4.05,3.8,8.41,0,10.4-1.09S201.84,469.71,201.84,469.71Z" style="fill: rgb(38, 50, 56); stroke: rgb(38, 50, 56); stroke-linecap: round; stroke-linejoin: round; transform-origin: 195.012px 470.622px;" id="el3u092titehb" class="animable"></path><path d="M215,413.63s-14.44,38.92-15.69,40.59-9.72,12.36-9.93,14.46,10.62,2.29,12.5,1,4.12-12.14,5.38-14.44,27.19-38.71,27.19-38.71Z" style="fill: rgb(255, 255, 255); stroke: rgb(38, 50, 56); stroke-linecap: round; stroke-linejoin: round; transform-origin: 211.914px 442.06px;" id="el7zky0dn5xkj" class="animable"></path><path d="M206.72,459.23s-3.79-2.35-5.78-2.71-4-.54-4-.54l-2.71,4.15L204.37,465A41,41,0,0,0,206.72,459.23Z" style="fill: rgb(38, 50, 56); stroke: rgb(38, 50, 56); stroke-linecap: round; stroke-linejoin: round; transform-origin: 200.475px 460.49px;" id="elqfy20eeqmr" class="animable"></path><path d="M242.4,295.72l-.3,6.81s-17.95,46.1-26.61,68.69-10.83,39.91-10.83,39.91,7.73,7.12,28.77,10.52a342.54,342.54,0,0,0,52.6,4c11.45,0,24.44-3.71,24.44-3.71s-9.9-60.64-17.94-88.18-12.69-31.87-12.69-31.87l-1.24-8.66Z" style="fill: rgb(255, 255, 255); stroke: rgb(38, 50, 56); stroke-linecap: round; stroke-linejoin: round; transform-origin: 257.565px 359.44px;" id="eln0bnm57cpv" class="animable"></path><line x1="255.54" y1="342.58" x2="253.23" y2="423.82" style="fill: none; stroke: rgb(38, 50, 56); stroke-linecap: round; stroke-linejoin: round; transform-origin: 254.385px 383.2px;" id="eltvnua9uzu2h" class="animable"></line><line x1="255.71" y1="336.56" x2="255.62" y2="339.76" style="fill: none; stroke: rgb(38, 50, 56); stroke-linecap: round; stroke-linejoin: round; transform-origin: 255.665px 338.16px;" id="el4b183lni8co" class="animable"></line><path d="M273.28,304.12c1.29-.27,2.56-.59,3.78-1" style="fill: none; stroke: rgb(38, 50, 56); stroke-linecap: round; stroke-linejoin: round; transform-origin: 275.17px 303.62px;" id="elwolmapfsazl" class="animable"></path><path d="M245.81,304.7a102.56,102.56,0,0,0,22.73.19" style="fill: none; stroke: rgb(38, 50, 56); stroke-linecap: round; stroke-linejoin: round; transform-origin: 257.175px 305.065px;" id="el53myzrrxzjj" class="animable"></path><path d="M319.5,222.83a53.52,53.52,0,0,1-1.06-6.82c-.15-2.73-2.73-6.37-2.42-7.88s1.81-1.36,2.57-.91a7.31,7.31,0,0,1,1.67,2s2.12-6.52,2.12-9.39,1.82-2.58,2.58-.61-.31,9.55-.31,9.55a38.1,38.1,0,0,1,4.25,1.36c1.36.6,3.94,1.82,3.48,5.61s-.91,5.9-1.82,5.9-1.66-1.21-1.66-1.21,0,4.09-1.37,5.31-4.09,1.36-4.09,1.36S323.74,224,319.5,222.83Z" style="fill: rgb(255, 255, 255); stroke: rgb(38, 50, 56); stroke-linecap: round; stroke-linejoin: round; transform-origin: 324.214px 212.404px;" id="elr836fly8dw9" class="animable"></path><path d="M328.9,220.4s.91-3.48.91-3.94" style="fill: none; stroke: rgb(38, 50, 56); stroke-linecap: round; stroke-linejoin: round; transform-origin: 329.355px 218.43px;" id="eliymgacz0lc8" class="animable"></path><line x1="320.26" y1="209.19" x2="319.35" y2="213.43" style="fill: none; stroke: rgb(38, 50, 56); stroke-linecap: round; stroke-linejoin: round; transform-origin: 319.805px 211.31px;" id="el4owgkga1wg" class="animable"></line><path d="M315.73,227.07l2.86-4.83s1.1-1.54,3.73-.66l.08,0a4.82,4.82,0,0,1,3.07,5.81l-.73,2.73S319,226.85,315.73,227.07Z" style="fill: #00FF88; stroke: rgb(38, 50, 56); stroke-linecap: round; stroke-linejoin: round; transform-origin: 320.683px 225.714px;" id="eln4hsa75ercn" class="animable"></path><path d="M196.6,323.91s.69,3.62,1,6.21,2.07,7.75,3.27,8.44,2.76,1.56,1,2.07-2.76.69-4.31-.51a15.69,15.69,0,0,1-2.59-2.59s-1.2,5.34-2.07,7.93a43.11,43.11,0,0,1-3.44,6.72s.69,2.93-.35,3.45-2.58-1.73-2.58-1.73a3.73,3.73,0,0,1-2.24-1.55c-.69-1.2-1.56-10.34-1.38-12.06s7.14-17.7,7.14-17.7Z" style="fill: rgb(255, 255, 255); stroke: rgb(38, 50, 56); stroke-linecap: round; stroke-linejoin: round; transform-origin: 192.773px 339.149px;" id="elojvd0hshnjl" class="animable"></path><path d="M186.81,342.87a8.79,8.79,0,0,0-1.07,2.76c0,.69.87,8.27.87,8.27" style="fill: none; stroke: rgb(38, 50, 56); stroke-linecap: round; stroke-linejoin: round; transform-origin: 186.275px 348.385px;" id="elbgfvcj4ct3r" class="animable"></path><polyline points="189.54 352.18 188.85 348.04 190.23 342.18" style="fill: none; stroke: rgb(38, 50, 56); stroke-linecap: round; stroke-linejoin: round; transform-origin: 189.54px 347.18px;" id="eliach0sm4ph" class="animable"></polyline><path d="M190.74,350.11a55.87,55.87,0,0,1,1.38-7.75" style="fill: none; stroke: rgb(38, 50, 56); stroke-linecap: round; stroke-linejoin: round; transform-origin: 191.43px 346.235px;" id="eljhzis87oczf" class="animable"></path><path d="M192.47,334.25a5.14,5.14,0,0,1-1.38,2.76,37.34,37.34,0,0,1-3.62,2.93" style="fill: none; stroke: rgb(38, 50, 56); stroke-linecap: round; stroke-linejoin: round; transform-origin: 189.97px 337.095px;" id="els0ebysda7zo" class="animable"></path><path d="M238.66,250.56s-14.06,6.81-14.93,8.57-18.45,33.15-20.86,36.23-9.89,7-10.76,10.1-.22,11.42-.22,11.42l-1.76,5.71s.22,2,3.29,2.63l3.08.66,5.27-5.05s11.42-2.85,16-8.34,15.81-31.18,15.81-31.18l-1.76,17.34a120,120,0,0,0,25,.66c13.62-1.1,28.55-3.29,28.55-3.29l-2-20.2s32.5-5.27,34.26-6.81,3.29-5.71,3.51-7.25,5.71-31,5.71-31a10.12,10.12,0,0,0-6.58-4.17c-4.62-.88-9.23,1.53-9.45,2.85s-9.66,20.42-9.66,20.42-.66-.44-3.07.66-3.52,1.54-3.52,1.54-11.63-4.61-16.47-4.17-9.44,1.1-9.44,1.1-8.56-4-14.93-2.2S238.66,250.56,238.66,250.56Z" style="fill: #00FF88; stroke: rgb(38, 50, 56); stroke-linecap: round; stroke-linejoin: round; transform-origin: 258.49px 276.141px;" id="elretad5n66q" class="animable"></path><polyline points="268.96 277.79 283.45 275.82 273.79 280.87" style="fill: none; stroke: rgb(38, 50, 56); stroke-linecap: round; stroke-linejoin: round; transform-origin: 276.205px 278.345px;" id="el3gsofwlknx" class="animable"></polyline><polyline points="233.83 271.42 233.61 281.31 230.31 277.13" style="fill: none; stroke: rgb(38, 50, 56); stroke-linecap: round; stroke-linejoin: round; transform-origin: 232.07px 276.365px;" id="el7h6juvxf64x" class="animable"></polyline><path d="M193.86,317.76s.66,2.19,5.93,2.19" style="fill: none; stroke: rgb(38, 50, 56); stroke-linecap: round; stroke-linejoin: round; transform-origin: 196.825px 318.855px;" id="elvzcaid3i9i" class="animable"></path><path d="M275.63,209.18a29.08,29.08,0,0,1,2.11,5.07c.64,2.33,3.18,4.87,3.81,8.67a25.71,25.71,0,0,1,.21,8.89c-.42,1.69-3.81,2.11-3.81,2.11a8.94,8.94,0,0,1-5.71-8C271.82,219.54,275.63,209.18,275.63,209.18Z" style="fill: rgb(255, 255, 255); stroke: rgb(38, 50, 56); stroke-linecap: round; stroke-linejoin: round; transform-origin: 277.129px 221.55px;" id="elh7fg66fm6j" class="animable"></path><path d="M278.81,216.18a8.89,8.89,0,0,0,2,.49c.62,0,1.74.13,1.37,1.62a3.11,3.11,0,0,1-1.24,2Z" style="fill: rgb(255, 255, 255); stroke: rgb(38, 50, 56); stroke-linecap: round; stroke-linejoin: round; transform-origin: 280.532px 218.235px;" id="el98awazxhyio" class="animable"></path><path d="M263.36,198.39s-5.29-2.54-8.88-.64-14.17,11.43-14.38,14.6-.43,7.82-.43,9.73-7.61,5.92-10.36,12.48,7.4,19.45,14.17,18.4,8.67-4.23,11.21-4.23,10.57,6.34,15.23,5.07,11.84-8.67,12.05-13.32-4.86-9.52-5.71-13.12.21-7.19,1.06-9.94S276.26,206,276.26,206s4.66.64,2.54-4-4-6.34-8.46-6.76A8.09,8.09,0,0,0,263.36,198.39Z" style="fill: rgb(38, 50, 56); stroke: rgb(38, 50, 56); stroke-linecap: round; stroke-linejoin: round; transform-origin: 255.412px 224.594px;" id="elh7sb7l0ht2e" class="animable"></path></g><defs>     <filter id="active" height="200%">         <feMorphology in="SourceAlpha" result="DILATED" operator="dilate" radius="2"></feMorphology>                <feFlood flood-color="#32DFEC" flood-opacity="1" result="PINK"></feFlood>        <feComposite in="PINK" in2="DILATED" operator="in" result="OUTLINE"></feComposite>        <feMerge>            <feMergeNode in="OUTLINE"></feMergeNode>            <feMergeNode in="SourceGraphic"></feMergeNode>        </feMerge>    </filter>    <filter id="hover" height="200%">        <feMorphology in="SourceAlpha" result="DILATED" operator="dilate" radius="2"></feMorphology>                <feFlood flood-color="#ff0000" flood-opacity="0.5" result="PINK"></feFlood>        <feComposite in="PINK" in2="DILATED" operator="in" result="OUTLINE"></feComposite>        <feMerge>            <feMergeNode in="OUTLINE"></feMergeNode>            <feMergeNode in="SourceGraphic"></feMergeNode>        </feMerge>            <feColorMatrix type="matrix" values="0   0   0   0   0                0   1   0   0   0                0   0   0   0   0                0   0   0   1   0 "></feColorMatrix>    </filter></defs></svg>